# xmcd CD database file
#
# Track frame offsets:
#	150
#	17230
#	34337
#	45135
#	58667
#	70732
#	80610
#	91767
#	102370
#	115250
#	122527
#	133037
#	143652
#
# Disc length: 2165 seconds
#
# Revision: 0
# Processed by: cddbd v1.5PL3 Copyright (c) Steve Scherf et al.
# Submitted via: CDex 1.50beta10
#
DISCID=a708730d
DTITLE=谷山浩子 - 静かでいいな〜谷山浩子１５の世界〜
DYEAR=1972
DGENRE=
TTITLE0=銀河系はやっぱりまわってる
TTITLE1=天使のつぶやき
TTITLE2=風船
TTITLE3=ひとりになりたい
TTITLE4=時の流れの中に
TTITLE5=こんな素敵な夜なのに
TTITLE6=今、始まる
TTITLE7=静かでいいな
TTITLE8=天使の子守唄
TTITLE9=教えて下さい〜加瀬クンのために〜
TTITLE10=どこかで小さな
TTITLE11=夜明けまで
TTITLE12=今、どうしたら
EXTD=YEAR: 1972
EXTT0=
EXTT1=
EXTT2=
EXTT3=
EXTT4=
EXTT5=
EXTT6=
EXTT7=
EXTT8=
EXTT9=
EXTT10=
EXTT11=
EXTT12=
PLAYORDER=
